<svg id="Layer_1" data-name="Layer 1" xmlns="http://www.w3.org/2000/svg" viewBox="0 0 461.54 128.11"><defs><style>.cls-1{fill:#1c7f55;}.cls-2{fill:#43514c;}.cls-3{fill:#a0aaa6;}.cls-4{fill:#1d6048;}.cls-5{fill:#2f3834;}.cls-6{fill:#909995;}</style></defs><title>primary-logo</title><polygon class="cls-1" points="0 48.66 132.58 48.66 25.08 127.3 41.11 78.64 0 48.66"/><polygon class="cls-2" points="52.62 43.19 80.91 43.19 66.19 0 52.62 43.19"/><polygon class="cls-3" points="93.97 85.2 71.1 101.85 108.4 128.11 93.97 85.2"/><polygon class="cls-4" points="40.9 78.49 41.11 78.64 25.08 127.3 132.55 48.67 40.9 78.49"/><polygon class="cls-5" points="66.32 0.37 66.19 0 52.62 43.19 66.32 43.19 66.32 0.37"/><polygon class="cls-6" points="71.1 101.85 108.32 128.06 82.86 93.29 71.1 101.85"/><path class="cls-1" d="M147.64,47.44h18.11c8.14,0,13.55,4.12,13.55,11,0,7.16-5.1,11.45-13.68,11.45h-9.44V82.44h-8.54Zm8.54,15.85H165c3.6,0,5.87-1.23,5.87-4.71,0-2.83-1.74-4.59-5.87-4.59h-8.78Z"/><path class="cls-1" d="M184.44,82.44v-37h8.12v37Z"/><path class="cls-1" d="M225,75.25c0,3.34.15,6.64.2,7.19h-7.67a17.67,17.67,0,0,1-.3-2.9c-1.38,2.22-4.33,3.6-9.16,3.6-7,0-9.86-4.28-9.86-8.38,0-6.75,5.9-8.62,13.47-8.62h5.38v-.81c0-2.08-.91-3.76-4.67-3.76-3.51,0-4.29,1.32-4.62,2.79h-8.12c.22-3.17,2.45-8.29,12.61-8.29,11.15,0,12.74,5.25,12.74,9.54Zm-7.94-4c-.59,0-2.36,0-5.24,0-4.13,0-5.75,1.08-5.75,3.11,0,1.66,1.35,3,4.3,3,4.45,0,6.69-2,6.69-5.69Z"/><path class="cls-1" d="M258.19,73.77c-1,4.86-5.21,9.37-13.63,9.37-9.89,0-14.25-6.22-14.25-13.58,0-7,4.95-13.49,14.26-13.49,10.17,0,13.15,6.64,13.45,9.48H249.9c-.48-1.4-1.73-3.4-5.26-3.4-4.21,0-6.06,3.11-6.06,7.35s1.75,7.52,6,7.52c2.93,0,4.43-1.07,5.47-3.25Z"/><path class="cls-1" d="M269.87,71.58c.21,3.1,2.46,5.53,6.31,5.53,3.06,0,4.51-.94,5.44-2.52h8.12c-1.55,4.55-5.41,8.55-13.65,8.55-10.51,0-14.31-7-14.31-13.5,0-7.24,4.87-13.57,14.25-13.57,10,0,14,6.88,14,13.57,0,.65,0,1.12,0,1.94Zm11.95-5c-.17-2-1.22-4.86-5.8-4.86-4.26,0-5.81,2.33-6,4.86Z"/><path class="cls-1" d="M303.28,45.44V60c1-1.43,3.19-3.91,8.52-3.91,6.34,0,10.07,3.61,10.07,11v15.4h-8.2V67.94c0-3.28-.89-5.56-4.58-5.56s-5.76,2.83-5.76,7.73V82.44h-8.12v-37Z"/><path class="cls-1" d="M356.67,69.58c0,7.91-5.46,13.56-15,13.56s-14.45-6.43-14.45-13.55S332.28,56.07,342,56.07C352,56.07,356.67,63.21,356.67,69.58Zm-21.19,0c0,4,2.22,7.42,6.47,7.42s6.37-3.38,6.37-7.29-1.93-7.52-6.43-7.52S335.48,65.63,335.48,69.59Z"/><path class="cls-1" d="M362,82.44v-37h8.12v37Z"/><path class="cls-1" d="M404.66,45.44V75.22c0,2.39,0,4.83,0,7.22h-8c-.1-.76-.15-2-.2-3-1.41,2-3.22,3.66-8.54,3.66-7.14,0-12.47-5.3-12.47-13.31a13.41,13.41,0,0,1,13.23-13.76c5,0,7.05,1.7,7.78,2.65V45.44Zm-20.83,24.2c0,4.06,2.34,7.15,6.5,7.15s6.36-2.76,6.36-7.18-1.73-7.24-6.33-7.24C386,62.37,383.83,65.86,383.83,69.64Z"/><path class="cls-1" d="M418.09,71.58c.21,3.1,2.46,5.53,6.31,5.53,3.06,0,4.51-.94,5.44-2.52H438c-1.55,4.55-5.41,8.55-13.65,8.55-10.51,0-14.31-7-14.31-13.5,0-7.24,4.87-13.57,14.25-13.57,10,0,14,6.88,14,13.57,0,.65,0,1.12,0,1.94Zm12-5c-.17-2-1.22-4.86-5.8-4.86-4.26,0-5.81,2.33-6.05,4.86Z"/><path class="cls-1" d="M443.52,63.74c0-2.32,0-4.65,0-7h7.93c.14.91.24,3.75.24,5.14,1.43-3.38,4.57-5.92,9.9-5.79V63.5c-5.81-.09-9.9,2.24-9.9,9.56v9.38h-8.12Z"/><path class="cls-5" d="M169,110.59c-1.32,4.19-4.44,7.76-11.52,7.76-8.2,0-12.53-5.72-12.53-12.6s4.79-12.68,12.74-12.68c7.1,0,10.49,3.85,11.38,7.85H165c-.92-2.26-2.72-4.58-7.34-4.58-5.32,0-8.45,4-8.45,9.27s3.06,9.49,8.48,9.49c4.3,0,6.06-1.82,7.29-4.51Z"/><path class="cls-5" d="M191.17,109.13c0,5-3.27,9.18-9.57,9.18a8.86,8.86,0,0,1-9.32-9.16c0-4.94,3.47-9.19,9.51-9.19A9,9,0,0,1,191.17,109.13Zm-15,0c0,3.15,2,6.13,5.56,6.13,3.74,0,5.51-2.81,5.51-6.09s-1.91-6.19-5.58-6.19S176.17,105.85,176.17,109.15Z"/><path class="cls-5" d="M195.28,104.93c0-1.51,0-3,0-4.49h3.67a21.07,21.07,0,0,1,.11,2.47,6.17,6.17,0,0,1,5.55-3c2.92,0,4.57,1.37,5.31,3.21a6.54,6.54,0,0,1,6-3.21c3.48,0,6.29,2,6.29,7.18v10.7h-3.76V107.26c0-1.9-.63-4.25-3.53-4.25-2.58,0-4.23,1.73-4.23,5.27v9.56h-3.78V107.15c0-2-.69-4.14-3.55-4.14-3,0-4.23,2.34-4.23,5.46v9.37h-3.78Z"/><path class="cls-5" d="M231.44,115.48v9.91h-3.81V104.76c0-1.44,0-2.89,0-4.32h3.73a25.13,25.13,0,0,1,.12,2.81c1-1.73,3-3.29,6.54-3.29,4.64,0,8.12,3.81,8.12,8.86,0,5.78-4,9.49-8.71,9.49C234,118.31,232.35,116.86,231.44,115.48ZM242.17,109c0-3-1.7-5.92-5.35-5.92-3.85,0-5.48,2.66-5.48,6.12s1.81,6,5.41,6S242.17,112.34,242.17,109Z"/><path class="cls-5" d="M265.86,113.39c0,1.83.11,4,.16,4.45H262.4a15.36,15.36,0,0,1-.2-2.41c-.93,1.73-2.9,2.88-6.49,2.88-4.88,0-6.71-3-6.71-5.61,0-4.48,4-5.72,9-5.72h4.09v-.83c0-1.79-.76-3.41-4.19-3.41-3.1,0-3.82,1.33-4.14,2.78H250c.19-2.27,1.73-5.56,7.92-5.56,6.63,0,7.95,3.2,7.95,6.09Zm-3.73-3.81h-4c-3.7,0-5.39.85-5.39,2.94,0,1.58,1.2,2.91,3.86,2.91,4.23,0,5.54-2.38,5.54-5.2Z"/><path class="cls-5" d="M271.36,104.82c0-1.46,0-3.1,0-4.38H275c.07.57.11,1.91.13,3,.77-1.56,2.53-3.46,6.17-3.46,4.14,0,6.76,2.55,6.76,7.25v10.63h-3.85v-10c0-2.65-1-4.79-4.06-4.79-3.37,0-5,2.52-5,6.33v8.43h-3.83Z"/><path class="cls-5" d="M294.86,100.44c3.52,8.29,5.36,13,5.83,14.43h.07c.57-1.73,2.25-6.62,5.33-14.43H310l-6.57,16.13c-3.07,7.54-4.14,9.3-8.9,9.3a15.17,15.17,0,0,1-2.37-.19v-3.25a15.46,15.46,0,0,0,1.87.12c2.36,0,3.17-.92,4.59-4l-8-18.16Z"/><path class="cls-5" d="M323.85,117.84V93.58h4.78c5.78,8.26,12.37,16.76,13.78,19.35h.07c-.22-3-.19-7-.19-11V93.58H346v24.26h-4.51c-3.29-4.55-12.39-17.39-14.05-20.2h-.07c.18,3.09.18,6.53.18,10.82v9.38Z"/><path class="cls-5" d="M367.55,113.39c0,1.83.11,4,.16,4.45h-3.62a16.7,16.7,0,0,1-.21-2.41c-.92,1.73-2.89,2.88-6.48,2.88-4.88,0-6.71-3-6.71-5.61,0-4.48,4-5.72,9-5.72h4.09v-.83c0-1.79-.77-3.41-4.19-3.41-3.1,0-3.82,1.33-4.14,2.78h-3.81c.19-2.27,1.73-5.56,7.92-5.56,6.63,0,7.95,3.2,7.95,6.09Zm-3.73-3.81h-4c-3.7,0-5.39.85-5.39,2.94,0,1.58,1.19,2.91,3.86,2.91,4.23,0,5.54-2.38,5.54-5.2Z"/><path class="cls-5" d="M373.05,104.93c0-1.51,0-3,0-4.49h3.67a21,21,0,0,1,.12,2.47,6.14,6.14,0,0,1,5.54-3c2.92,0,4.58,1.37,5.32,3.21a6.51,6.51,0,0,1,5.95-3.21c3.48,0,6.29,2,6.29,7.18v10.7h-3.76V107.26c0-1.9-.63-4.25-3.53-4.25-2.57,0-4.23,1.73-4.23,5.27v9.56H384.6V107.15c0-2-.69-4.14-3.55-4.14-3,0-4.22,2.34-4.22,5.46v9.37h-3.78Z"/><path class="cls-5" d="M407.83,110a5.32,5.32,0,0,0,5.55,5.29c2.57,0,3.94-1,4.8-2.53H422c-1,2.7-3.47,5.51-8.76,5.51-6.45,0-9.22-4.59-9.22-9.13,0-5.17,3.45-9.22,9.15-9.22,6.64,0,9.07,4.79,9.07,9.11,0,.33,0,.57,0,1Zm10.47-2.58c-.14-1.89-1.14-4.64-5.15-4.64a4.83,4.83,0,0,0-5.25,4.64Z"/></svg>