<svg id="Layer_1" data-name="Layer 1" xmlns="http://www.w3.org/2000/svg" viewBox="0 0 276.28 88.41"><defs><style>.cls-1{fill:#fff;}.cls-2{fill:#febc1f;}</style></defs><title>coalmarch-logo</title><path class="cls-1" d="M111,37.49a14.27,14.27,0,0,1-1.55,1.43,10.94,10.94,0,0,1-1.88,1.2,10.44,10.44,0,0,1-2.19.83,9.65,9.65,0,0,1-2.49.31A11.14,11.14,0,0,1,99,40.61a8.21,8.21,0,0,1-3-1.91,8.68,8.68,0,0,1-1.92-3,11.35,11.35,0,0,1-.68-4,10.47,10.47,0,0,1,.78-4.14,10.29,10.29,0,0,1,2-3.11,8.49,8.49,0,0,1,2.64-1.94,6.41,6.41,0,0,1,2.74-.67,5.6,5.6,0,0,1,1.73.24,5.85,5.85,0,0,1,1.25.55,3.88,3.88,0,0,1,.79.62l.36.41.61-1.5h4.21v7.61h-4.79a4.9,4.9,0,0,0-.22-1.26,3.79,3.79,0,0,0-.52-1.09,2.6,2.6,0,0,0-.86-.75,2.67,2.67,0,0,0-1.24-.28,2.21,2.21,0,0,0-1.32.42,3.39,3.39,0,0,0-1,1.14,6.06,6.06,0,0,0-.64,1.68,8.58,8.58,0,0,0-.23,2.07,7,7,0,0,0,.25,1.9,5.29,5.29,0,0,0,.75,1.61,3.92,3.92,0,0,0,1.22,1.11,3.41,3.41,0,0,0,1.69.41,3.49,3.49,0,0,0,1.58-.37,6.29,6.29,0,0,0,1.31-.85,8.06,8.06,0,0,0,.93-.88l.44-.52Z"/><path class="cls-1" d="M121.38,41.32a11.64,11.64,0,0,1-3.85-.62,8.11,8.11,0,0,1-3-1.85,8.45,8.45,0,0,1-2-3.09,12.35,12.35,0,0,1-.7-4.38,11,11,0,0,1,.68-4,9.09,9.09,0,0,1,1.93-3.09,8.63,8.63,0,0,1,3-2,10,10,0,0,1,3.82-.71,11.75,11.75,0,0,1,4.27.71,8,8,0,0,1,3,2,8.31,8.31,0,0,1,1.77,3.15,13.87,13.87,0,0,1,.57,4.1,12.63,12.63,0,0,1-.61,4.08,8.08,8.08,0,0,1-1.83,3.07,7.83,7.83,0,0,1-3,1.92A11.16,11.16,0,0,1,121.38,41.32Zm0-4.21a1.74,1.74,0,0,0,1.14-.4,3.31,3.31,0,0,0,.86-1.13,6.72,6.72,0,0,0,.55-1.74,13.09,13.09,0,0,0,.19-2.27,13.69,13.69,0,0,0-.18-2.28,6.94,6.94,0,0,0-.53-1.86,3.37,3.37,0,0,0-.92-1.25,2,2,0,0,0-1.32-.45,1.73,1.73,0,0,0-1.13.41,3.65,3.65,0,0,0-.87,1.17,7.71,7.71,0,0,0-.56,1.79,12.48,12.48,0,0,0-.2,2.28,11.48,11.48,0,0,0,.23,2.37,7.51,7.51,0,0,0,.61,1.81,3.33,3.33,0,0,0,.94,1.15A2,2,0,0,0,121.38,37.11Z"/><path class="cls-1" d="M152.32,40.83H141.58v-3.5h2.54l-.56-1.83h-5.49l-.56,1.83h2.09v3.5h-8.52v-3.5h1.82l3.62-11.76h-1.1V22.11H145.7l4.75,15.22h1.87Zm-13.26-8.54h3.51L140.8,26.5Z"/><path class="cls-1" d="M153.39,22.11h8.47v3.54h-1.42V37.27h3.45v-3.4h4.5v7h-15V37.27h1.48V25.65h-1.48Z"/><path class="cls-1" d="M188.32,26.82c0,.31-.12.64-.19,1s-.14.7-.21,1-.14.63-.2.91-.12.49-.18.66l-2.81,10.41h-5.6l-1.5-5.34-1.5-5.34c0-.11-.08-.29-.13-.52s-.11-.52-.16-.82-.11-.63-.16-1a8.6,8.6,0,0,1-.11-1h-.11V37.38H177v3.45h-7.26V37.38h1.45V25.57h-1.42V22.11h10.15l2.7,10,2.58-10h10.2v3.46h-1.47V37.35h1.47v3.48h-8.46V37.35h1.52l0-8.94V26.82Z"/><path class="cls-1" d="M217.71,40.83H207v-3.5h2.55l-.57-1.83h-5.49l-.56,1.83H205v3.5h-8.52v-3.5h1.82l3.62-11.76h-1.1V22.11h10.29l4.74,15.22h1.88Zm-13.27-8.54H208l-1.77-5.79Z"/><path class="cls-1" d="M218.77,22.11h8.71a13.55,13.55,0,0,1,3.78.43,5.6,5.6,0,0,1,2.26,1.18,3.75,3.75,0,0,1,1.1,1.75,7.89,7.89,0,0,1,.28,2.16,3.52,3.52,0,0,1-.3,1.45,3.47,3.47,0,0,1-.81,1.16,4.56,4.56,0,0,1-1.24.83,5.11,5.11,0,0,1-1.53.44,4.19,4.19,0,0,1,1.32.44,4.43,4.43,0,0,1,1.11.85,4.32,4.32,0,0,1,.78,1.15,3.18,3.18,0,0,1,.29,1.37,5.22,5.22,0,0,0,.14,1.34q.14.48.51.48c.41,0,.61-.29.61-.86V35.4h1.8v1.47a7.16,7.16,0,0,1-.19,1.61,3.6,3.6,0,0,1-.64,1.37,3.48,3.48,0,0,1-1.21.94,4.15,4.15,0,0,1-1.87.37,5.28,5.28,0,0,1-3.93-1.31,5.06,5.06,0,0,1-1.27-3.68,12.31,12.31,0,0,0-.08-1.5,1.8,1.8,0,0,0-.36-.92,1.54,1.54,0,0,0-.82-.47,6,6,0,0,0-1.42-.14V37.3h1.64v3.53h-8.66V37.3h1.51V25.62h-1.51Zm7,3.48v4.56H227a3,3,0,0,0,1.87-.55,1.93,1.93,0,0,0,.7-1.62,2.34,2.34,0,0,0-.63-1.8,2.56,2.56,0,0,0-1.81-.59Z"/><path class="cls-1" d="M255.82,37.49a14.39,14.39,0,0,1-1.56,1.43,10.85,10.85,0,0,1-1.87,1.2,10.32,10.32,0,0,1-2.2.83,9.54,9.54,0,0,1-2.49.31,11.12,11.12,0,0,1-3.88-.65,8.13,8.13,0,0,1-3-1.91,8.54,8.54,0,0,1-1.92-3,11.13,11.13,0,0,1-.68-4,10.65,10.65,0,0,1,.77-4.14,10.51,10.51,0,0,1,2-3.11,8.57,8.57,0,0,1,2.63-1.94,6.48,6.48,0,0,1,2.75-.67,5.6,5.6,0,0,1,1.73.24,5.54,5.54,0,0,1,1.24.55,3.39,3.39,0,0,1,.79.62,4.76,4.76,0,0,1,.36.41l.62-1.5h4.21v7.61h-4.8a5.36,5.36,0,0,0-.21-1.26,3.81,3.81,0,0,0-.53-1.09,2.47,2.47,0,0,0-.85-.75,2.71,2.71,0,0,0-1.25-.28,2.2,2.2,0,0,0-1.31.42,3.53,3.53,0,0,0-1,1.14,6.39,6.39,0,0,0-.64,1.68,9.12,9.12,0,0,0-.23,2.07,7,7,0,0,0,.26,1.9,5.29,5.29,0,0,0,.75,1.61,3.92,3.92,0,0,0,1.22,1.11,3.38,3.38,0,0,0,1.69.41,3.52,3.52,0,0,0,1.58-.37,6.57,6.57,0,0,0,1.31-.85,7.9,7.9,0,0,0,.92-.88l.45-.52Z"/><path class="cls-1" d="M256.89,22.11h8.68v3.54h-1.66v4H269v-4h-1.58V22.11h8.7v3.54h-1.55V37.3h1.55v3.53h-8.7V37.3H269v-4h-5.09v4h1.66v3.53h-8.68V37.3h1.47V25.65h-1.47Z"/><path class="cls-1" d="M93.87,49.37h7.88a11.16,11.16,0,0,1,3.43.43,5,5,0,0,1,2,1.14,3.63,3.63,0,0,1,1,1.65,7.59,7.59,0,0,1,.25,2,4.2,4.2,0,0,1-.51,2.11,4.5,4.5,0,0,1-1.38,1.5,6.7,6.7,0,0,1-2,.9,9.83,9.83,0,0,1-2.47.3h-1.85v3.77h1.48v3.21H93.87V63.16h1.36V52.56H93.87Zm6.35,3.16v4.23h1.09a2.68,2.68,0,0,0,1.73-.52,1.8,1.8,0,0,0,.66-1.49,2.15,2.15,0,0,0-.6-1.66,2.36,2.36,0,0,0-1.67-.56Z"/><path class="cls-1" d="M109.44,49.37h7.9a12.35,12.35,0,0,1,3.43.39,5.26,5.26,0,0,1,2.06,1.07,3.37,3.37,0,0,1,1,1.59,7.26,7.26,0,0,1,.25,2,3.22,3.22,0,0,1-1,2.37,4.33,4.33,0,0,1-1.12.76,4.83,4.83,0,0,1-1.4.4,3.75,3.75,0,0,1,1.21.4,4.22,4.22,0,0,1,1,.77,3.73,3.73,0,0,1,.7,1,3,3,0,0,1,.27,1.24,4.83,4.83,0,0,0,.12,1.22c.08.29.24.44.46.44.38,0,.56-.26.56-.78v-.8h1.63v1.33a5.84,5.84,0,0,1-.17,1.46,3.23,3.23,0,0,1-.58,1.24,3,3,0,0,1-1.1.87,4,4,0,0,1-1.7.32,4.74,4.74,0,0,1-3.56-1.19,4.57,4.57,0,0,1-1.16-3.33,10.26,10.26,0,0,0-.07-1.36,1.62,1.62,0,0,0-.33-.84,1.46,1.46,0,0,0-.74-.43,5.53,5.53,0,0,0-1.29-.12v3.77h1.48v3.21h-7.85V63.16h1.36V52.56h-1.36Zm6.37,3.16v4.14h1.1a2.69,2.69,0,0,0,1.7-.5,1.76,1.76,0,0,0,.63-1.47,2.14,2.14,0,0,0-.57-1.63,2.3,2.3,0,0,0-1.64-.54Z"/><path class="cls-1" d="M135.83,66.81a10.36,10.36,0,0,1-3.5-.56,7.33,7.33,0,0,1-2.76-1.68,7.44,7.44,0,0,1-1.8-2.81,11.08,11.08,0,0,1-.65-4,10.07,10.07,0,0,1,.62-3.6,8.31,8.31,0,0,1,1.75-2.81,7.88,7.88,0,0,1,2.7-1.83,9,9,0,0,1,3.47-.64,10.62,10.62,0,0,1,3.88.64,7.18,7.18,0,0,1,2.72,1.83,7.43,7.43,0,0,1,1.61,2.86,12.34,12.34,0,0,1,.52,3.72,11.61,11.61,0,0,1-.56,3.71,7.37,7.37,0,0,1-1.65,2.78,7.21,7.21,0,0,1-2.69,1.75A10.1,10.1,0,0,1,135.83,66.81Zm0-3.82a1.6,1.6,0,0,0,1-.36,3.2,3.2,0,0,0,.78-1,5.87,5.87,0,0,0,.5-1.58,11.87,11.87,0,0,0,.17-2.07,12.42,12.42,0,0,0-.16-2.07,6.37,6.37,0,0,0-.48-1.69,3.11,3.11,0,0,0-.83-1.13,1.79,1.79,0,0,0-1.2-.41,1.59,1.59,0,0,0-1,.37,3,3,0,0,0-.79,1.06,6.52,6.52,0,0,0-.51,1.63,11.08,11.08,0,0,0-.18,2.07,10.11,10.11,0,0,0,.21,2.15,6.06,6.06,0,0,0,.56,1.64,2.93,2.93,0,0,0,.85,1.05A1.8,1.8,0,0,0,135.83,63Z"/><path class="cls-1" d="M145.36,66.37V63.14h1.51V52.58h-1.51V49.37h7.42a11.09,11.09,0,0,1,3.93.64,8.57,8.57,0,0,1,2.9,1.76,7.54,7.54,0,0,1,1.8,2.61,8.56,8.56,0,0,1,.62,3.26,8.45,8.45,0,0,1-2.41,6.46q-2.42,2.27-6.93,2.27Zm11.07-8.73a9,9,0,0,0-.2-1.88,5.34,5.34,0,0,0-.65-1.62A3.39,3.39,0,0,0,154.45,53a3.07,3.07,0,0,0-1.67-.43h-.92V63.14h.92a3.15,3.15,0,0,0,2.8-1.62,5.78,5.78,0,0,0,.65-1.74A11.11,11.11,0,0,0,156.43,57.64Z"/><path class="cls-1" d="M162.39,49.37h7.74v3.14h-1.32v5.25a15.28,15.28,0,0,0,.16,2.39,4,4,0,0,0,.48,1.44,1.68,1.68,0,0,0,.76.72,2.61,2.61,0,0,0,1,.19,3.09,3.09,0,0,0,1-.15,1.58,1.58,0,0,0,.78-.66,3.82,3.82,0,0,0,.5-1.43,14.18,14.18,0,0,0,.17-2.52V52.58h-1.31V49.37h7.2v3.14h-1.31v5.91c0,2.89-.6,5-1.78,6.35a6.58,6.58,0,0,1-5.21,2,7.89,7.89,0,0,1-5.61-2.11q-1.94-2-1.93-6.14v-6h-1.36Z"/><path class="cls-1" d="M195.79,63.33a11.74,11.74,0,0,1-1.41,1.3,10.31,10.31,0,0,1-1.7,1.1,9.72,9.72,0,0,1-2,.75,8.75,8.75,0,0,1-2.26.28,10.13,10.13,0,0,1-3.53-.59,7.59,7.59,0,0,1-2.7-1.73,8,8,0,0,1-1.74-2.75,10.25,10.25,0,0,1-.62-3.66,9.58,9.58,0,0,1,.71-3.76,9.34,9.34,0,0,1,1.8-2.82,7.77,7.77,0,0,1,2.39-1.76,5.84,5.84,0,0,1,2.5-.61,4.85,4.85,0,0,1,1.56.22,5.06,5.06,0,0,1,1.14.5,2.88,2.88,0,0,1,.71.56,3.08,3.08,0,0,1,.33.37l.56-1.36h3.82v6.91H191a4.55,4.55,0,0,0-.2-1.15,3.3,3.3,0,0,0-.47-1,2.24,2.24,0,0,0-.78-.68,2.36,2.36,0,0,0-1.13-.26,2,2,0,0,0-1.19.38,3.16,3.16,0,0,0-.91,1,5.49,5.49,0,0,0-.59,1.54,8,8,0,0,0-.21,1.87,6.62,6.62,0,0,0,.23,1.73,4.75,4.75,0,0,0,.69,1.45,3.44,3.44,0,0,0,1.1,1,3.05,3.05,0,0,0,1.54.37,3.1,3.1,0,0,0,1.43-.34,6.07,6.07,0,0,0,1.19-.76,7.33,7.33,0,0,0,.84-.81c.22-.25.36-.41.4-.47Z"/><path class="cls-1" d="M212.84,49.37V55.7h-3.58V52.58h-2V63.14h2v3.23h-9.05V63.14h2V52.58h-2.1V55.7h-3.57V49.37Z"/><path class="cls-1" d="M213.81,49.37h8.08v3.21h-1.51V63.14h1.51v3.23h-8.08V63.14h1.54V52.58h-1.54Z"/><path class="cls-1" d="M231.33,66.81a10.42,10.42,0,0,1-3.51-.56,7.33,7.33,0,0,1-2.76-1.68,7.56,7.56,0,0,1-1.8-2.81,11.32,11.32,0,0,1-.64-4,9.86,9.86,0,0,1,.62-3.6A8,8,0,0,1,225,51.38a7.78,7.78,0,0,1,2.7-1.83,9,9,0,0,1,3.47-.64,10.62,10.62,0,0,1,3.88.64,7.18,7.18,0,0,1,2.72,1.83,7.43,7.43,0,0,1,1.61,2.86,12.34,12.34,0,0,1,.52,3.72,11.61,11.61,0,0,1-.56,3.71,7.37,7.37,0,0,1-1.65,2.78A7.21,7.21,0,0,1,235,66.2,10.14,10.14,0,0,1,231.33,66.81Zm0-3.82a1.6,1.6,0,0,0,1-.36,3.2,3.2,0,0,0,.78-1,5.87,5.87,0,0,0,.5-1.58,11.87,11.87,0,0,0,.17-2.07,12.42,12.42,0,0,0-.16-2.07,6.75,6.75,0,0,0-.49-1.69,3.09,3.09,0,0,0-.82-1.13,1.83,1.83,0,0,0-1.21-.41,1.58,1.58,0,0,0-1,.37,3,3,0,0,0-.79,1.06,6.52,6.52,0,0,0-.51,1.63,11.08,11.08,0,0,0-.18,2.07,10.85,10.85,0,0,0,.2,2.15,6.83,6.83,0,0,0,.56,1.64,3,3,0,0,0,.86,1.05A1.8,1.8,0,0,0,231.33,63Z"/><path class="cls-1" d="M259.25,52.51h-1.6V66.37h-5.23l-6.21-9.27v6.13h1.88v3.14h-7.47V63.23h1.43V52.51h-1.41V49.37h7l6,8.93,0-5.79h-1.65V49.37h7.32Z"/><path class="cls-1" d="M260.22,66.37V60.24h4.53a2,2,0,0,0,.34,1.24,2.44,2.44,0,0,0,.82.72,3.46,3.46,0,0,0,1,.36c.35.06.65.1.91.12a5.45,5.45,0,0,0,.68,0,2.28,2.28,0,0,0,.67-.19,1.51,1.51,0,0,0,.52-.36.94.94,0,0,0,.2-.62c0-.31-.23-.56-.69-.77a13.22,13.22,0,0,0-1.73-.59c-.69-.2-1.44-.42-2.25-.68a8.85,8.85,0,0,1-2.25-1,6,6,0,0,1-1.73-1.66,4.47,4.47,0,0,1-.69-2.57,4.6,4.6,0,0,1,.57-2.33,5.06,5.06,0,0,1,1.44-1.63,6.35,6.35,0,0,1,1.87-1,6.42,6.42,0,0,1,1.91-.32,8.66,8.66,0,0,1,1.51.14,6.75,6.75,0,0,1,1.43.42,4.56,4.56,0,0,1,1.23.77,4,4,0,0,1,.91,1.15l.25-2h4.18v6.11h-4.4a2.73,2.73,0,0,0-.25-1.21,2.65,2.65,0,0,0-.66-.89,2.93,2.93,0,0,0-1-.54,3.69,3.69,0,0,0-1.21-.18,1.89,1.89,0,0,0-.56.08,2.61,2.61,0,0,0-.54.24,1.46,1.46,0,0,0-.42.4,1.08,1.08,0,0,0-.16.56,1.24,1.24,0,0,0,.72,1.05,11.48,11.48,0,0,0,1.79.78l2.31.79a12.15,12.15,0,0,1,2.31,1,6.1,6.1,0,0,1,1.79,1.59,3.81,3.81,0,0,1,.72,2.38,4.51,4.51,0,0,1-.6,2.41,5.06,5.06,0,0,1-1.53,1.59,6.33,6.33,0,0,1-2.08.89,9.72,9.72,0,0,1-2.24.27,7,7,0,0,1-1.7-.2,6.87,6.87,0,0,1-1.41-.51,6.59,6.59,0,0,1-1.13-.71,6,6,0,0,1-.84-.82l-.27,1.87Z"/><path class="cls-2" d="M71.33,54.07A29,29,0,0,0,73,44.27,28.65,28.65,0,0,0,71.13,34L85,27l-1.35-2.67A44.2,44.2,0,1,0,44.2,88.41,44,44,0,0,0,83.9,63.67L85.21,61ZM44.2,82.44a38.24,38.24,0,1,1,32.7-58l-8.47,4.23a27,27,0,0,0-2.1-2.86c-.1-.13-.21-.25-.32-.37s-.42-.5-.65-.74-.46-.49-.7-.73l-.2-.21A28.72,28.72,0,0,0,38.4,15.94a28.9,28.9,0,1,0,30.33,43.5l8.39,4.21A38,38,0,0,1,44.2,82.44Zm17.38-29.5v4.92h-12V52.94h2.16l0-12.64V38.07h-.15c-.07.43-.16.89-.27,1.4s-.2,1-.3,1.45-.19.9-.28,1.29a9.56,9.56,0,0,1-.25.93l-4,14.72H38.61q-1.05-3.78-2.12-7.55t-2.12-7.55c0-.15-.11-.4-.19-.74S34,41.3,34,40.87s-.15-.89-.23-1.37a13.58,13.58,0,0,1-.15-1.43h-.15V53h2.15v4.88H25.33V53h2V36.29h-2V31.41H39.71l3.82,14.15,3.63-14.15H61.58v4.88H59.5V52.94Z"/></svg>